<svg width="190" height="60" viewBox="0 0 190 60" fill="none" xmlns="http://www.w3.org/2000/svg">
<path fill-rule="evenodd" clip-rule="evenodd" d="M32.1132 11.7727L41.245 17.0612L32.1132 22.3515L22.9805 17.0612L32.1132 11.7727Z" fill="#93C448"/>
<path fill-rule="evenodd" clip-rule="evenodd" d="M21.982 29.0856V18.5085L31.1112 23.7988L31.1121 34.3767L21.982 29.0856Z" fill="#005374"/>
<path fill-rule="evenodd" clip-rule="evenodd" d="M20.9288 30.3796L30.0597 35.6673L20.9288 40.9541L11.7961 35.6673L20.9288 30.3796Z" fill="#31829D"/>
<path fill-rule="evenodd" clip-rule="evenodd" d="M10.7996 47.6882L10.7953 37.1121L19.9263 42.4006L19.9297 52.9811L10.7996 47.6882Z" fill="#005374"/>
<path fill-rule="evenodd" clip-rule="evenodd" d="M43.1463 30.675L52.2781 35.9618L43.1463 41.2469L34.0101 35.9618L43.1463 30.675Z" fill="#93C448"/>
<path fill-rule="evenodd" clip-rule="evenodd" d="M33.0181 47.9854L33.0164 37.4075L42.1421 42.6986L42.149 53.2765L33.0181 47.9854Z" fill="#005374"/>
<path fill-rule="evenodd" clip-rule="evenodd" d="M53.2558 48.0174L53.2576 37.4377L44.1275 42.7297L44.1257 53.3076L53.2558 48.0174Z" fill="#D6D6D6"/>
<path fill-rule="evenodd" clip-rule="evenodd" d="M32.9797 10.5796L32.9789 0L42.1073 5.29111L42.1116 15.8699L32.9797 10.5796Z" fill="#005374"/>
<path fill-rule="evenodd" clip-rule="evenodd" d="M32.1132 49.425L41.245 54.7136L32.1132 60.0004L22.9805 54.7136L32.1132 49.425Z" fill="#D6D6D6"/>
<path fill-rule="evenodd" clip-rule="evenodd" d="M9.13269 48.9539L18.2645 54.2432L9.13269 59.5292L0 54.2432L9.13269 48.9539Z" fill="#D6D6D6"/>
<path fill-rule="evenodd" clip-rule="evenodd" d="M74.8879 31.6882V22.9763C74.8879 18.9468 72.8515 17.1093 69.898 17.1093C67.0945 17.1093 64.9676 18.8318 64.9676 22.7999V31.6882H62.782V9.79224H64.9676V17.5849C66.0595 15.9861 67.8917 15.0955 70.1083 15.0955C74.2985 15.0955 77.0735 17.5573 77.0735 22.9763V31.6882H74.8879Z" fill="#005374"/>
<path fill-rule="evenodd" clip-rule="evenodd" d="M80.1819 9.97266H82.3675V13.703H80.1819V9.97266ZM80.1819 15.4773H82.3675V31.6879H80.1819V15.4773Z" fill="#005374"/>
<path fill-rule="evenodd" clip-rule="evenodd" d="M100.514 34.7568C99.1276 36.5925 96.7654 37.663 93.9619 37.663C89.8838 37.663 87.0199 35.5886 85.8436 31.796H87.9671C89.62 34.7291 91.1851 35.6474 93.9024 35.6474C97.7987 35.6474 99.8343 33.3654 99.8343 29.099V28.0017C98.5666 30.4903 96.5611 31.6767 93.6654 31.6767C88.9392 31.6767 85.2515 28.0017 85.2515 23.2623C85.2515 18.3724 88.7936 14.6965 93.5198 14.6965C96.2336 14.6965 98.2107 15.7359 99.8343 17.9591V15.0839H102.024V28.3865C102.024 31.5617 101.61 33.2764 100.514 34.7568ZM93.6353 16.7139C90.0656 16.7139 87.4638 19.3798 87.4638 23.0859C87.4638 26.8473 90.1242 29.6602 93.6654 29.6602C97.1799 29.6602 99.8343 26.7851 99.8343 22.9951C99.8343 19.468 97.1187 16.7139 93.6353 16.7139Z" fill="#005374"/>
<path fill-rule="evenodd" clip-rule="evenodd" d="M117.282 31.6882V22.9763C117.282 18.9468 115.243 17.1093 112.292 17.1093C109.484 17.1093 107.363 18.8318 107.363 22.7999V31.6882H105.176V9.79224H107.363V17.5849C108.455 15.9861 110.281 15.0955 112.498 15.0955C116.69 15.0955 119.469 17.5573 119.469 22.9763V31.6882H117.282Z" fill="#005374"/>
<path fill-rule="evenodd" clip-rule="evenodd" d="M134.774 27.0357C134.761 25.1299 133.648 23.851 131.179 23.0555C127.94 22.0464 127.77 21.9841 127.143 21.7463C125.793 21.243 125.069 20.4899 125.077 19.4514C125.086 18.0082 126.559 16.9351 128.345 16.9351C130.187 16.9351 131.538 17.7522 131.637 19.3018H134.22C134.1 16.9239 131.688 15.2723 128.376 15.2671C124.955 15.2723 122.501 17.1521 122.491 19.6598C122.497 20.7528 123.007 21.7022 124.027 22.4164C124.871 23.0269 124.897 23.0373 127.922 23.9591C130.991 24.8886 132.191 25.4844 132.188 27.2423C132.185 28.9977 130.552 30.2282 128.416 30.2359C126.054 30.2282 124.318 29.0842 124.221 27.0884H121.713C121.814 30.0051 124.442 31.8832 128.416 31.891C132.2 31.8832 134.761 29.8702 134.774 27.0357Z" fill="#2C809F"/>
<path fill-rule="evenodd" clip-rule="evenodd" d="M141.189 17.4639V31.6882H139.001V17.4639H135.518V15.4777H139.001V9.79224H141.189V15.4777H144.823V17.4639H141.189Z" fill="#2C809F"/>
<path fill-rule="evenodd" clip-rule="evenodd" d="M146.457 24.3084C146.632 27.5112 149.438 30.0543 152.747 30.0543C155.198 30.0543 157.473 28.5783 158.386 26.3543H160.66C159.626 29.4352 156.468 32.0708 152.808 32.0708C148.025 32.0708 144.271 28.3085 144.271 23.5111C144.271 18.7976 147.962 15.095 152.657 15.095C157.443 15.095 161.074 18.5642 161.074 24.3084H146.457ZM152.628 17.1089C149.556 17.1089 147.105 19.2135 146.515 22.3256H158.889C158.15 19.0985 155.76 17.1089 152.628 17.1089Z" fill="#2C809F"/>
<path fill-rule="evenodd" clip-rule="evenodd" d="M172.214 32.0708C169.526 32.0708 167.34 30.9787 165.924 28.9025V37.3783H163.739V15.4772H165.924V18.2684C167.284 16.2234 169.526 15.095 172.273 15.095C177.089 15.095 180.777 18.7976 180.777 23.6296C180.777 28.3656 177.025 32.0708 172.214 32.0708ZM172.185 17.1089C168.613 17.1089 165.775 19.9287 165.775 23.5111C165.775 27.2458 168.52 30.0543 172.214 30.0543C175.819 30.0543 178.564 27.2734 178.564 23.6296C178.564 19.8958 175.819 17.1089 172.185 17.1089Z" fill="#2C809F"/>
<path fill-rule="evenodd" clip-rule="evenodd" d="M63.3698 47.1743L63.9059 44.338L62.5925 40.3457H63.4913L64.1463 42.5542C64.3195 43.162 64.379 43.4361 64.4299 43.6999H64.4505C64.622 43.4163 64.8539 43.0306 65.1779 42.5239L66.6508 40.3457H67.6298L64.7324 44.3277L64.198 47.1743H63.3698Z" fill="#9C9B9B"/>
<path fill-rule="evenodd" clip-rule="evenodd" d="M71.2309 44.2064C71.2309 45.7162 70.1614 47.2865 68.5265 47.2865C67.3036 47.2865 66.6167 46.3742 66.6167 45.2709C66.6167 43.6599 67.7379 42.1597 69.3237 42.1597C70.6457 42.1597 71.2309 43.1627 71.2309 44.2064ZM67.4863 45.2397C67.4863 46.0396 67.9189 46.6181 68.6368 46.6181C69.6253 46.6181 70.3734 45.3418 70.3734 44.196C70.3734 43.6288 70.1114 42.8281 69.2315 42.8281C68.1818 42.8281 67.4751 44.1148 67.4863 45.2397Z" fill="#9C9B9B"/>
<path fill-rule="evenodd" clip-rule="evenodd" d="M76.5783 42.271L75.9233 45.7454C75.8216 46.2936 75.7501 46.7692 75.7001 47.1747H74.9434L75.0744 46.2529H75.0537C74.6193 46.8911 73.973 47.2863 73.3266 47.2863C72.7009 47.2863 72.046 46.9828 72.046 45.8682C72.046 45.6347 72.0753 45.3718 72.1356 45.0476L72.6604 42.271H73.4981L72.9845 45.0069C72.9233 45.2802 72.8923 45.5128 72.8923 45.7255C72.8923 46.2322 73.106 46.5772 73.6808 46.5772C74.2858 46.5772 75.0649 45.8682 75.2657 44.783L75.7406 42.271H76.5783Z" fill="#9C9B9B"/>
<path fill-rule="evenodd" clip-rule="evenodd" d="M77.1237 47.1749L77.7192 44.0145C77.8399 43.3763 77.9209 42.7278 77.9709 42.2712H78.7095C78.669 42.6154 78.6284 42.9604 78.5767 43.3357H78.6078C78.9215 42.6664 79.4455 42.1597 80.1013 42.1597C80.1728 42.1597 80.2745 42.17 80.3349 42.1796L80.1728 43.0114C80.1211 43.001 80.0418 42.9906 79.9505 42.9906C79.2231 42.9906 78.5767 43.8718 78.3647 45.0175L77.9623 47.1749H77.1237Z" fill="#9C9B9B"/>
<path fill-rule="evenodd" clip-rule="evenodd" d="M82.2183 48.2895C82.5104 48.472 82.9948 48.6138 83.5101 48.6138C84.328 48.6138 84.9744 48.1884 85.2674 46.8611L85.4286 46.1312H85.3993C84.9744 46.8308 84.3797 47.1749 83.7023 47.1749C82.7224 47.1749 82.2183 46.3448 82.2183 45.4723C82.2071 43.8112 83.43 42.1597 85.3182 42.1597C85.8836 42.1597 86.4989 42.3222 86.8833 42.5038L86.1361 46.5567C85.9336 47.5909 85.6612 48.3103 85.145 48.7452C84.6615 49.1707 84.0057 49.2917 83.4403 49.2917C82.844 49.2917 82.2881 49.1508 81.9753 48.9484L82.2183 48.2895ZM85.9646 43.001C85.8121 42.9301 85.5104 42.8385 85.1562 42.8385C83.9342 42.8385 83.0965 44.1148 83.087 45.3314C83.087 45.8684 83.2783 46.5065 84.0264 46.5065C84.7425 46.5065 85.4699 45.5943 85.6518 44.6319L85.9646 43.001Z" fill="#9C9B9B"/>
<path fill-rule="evenodd" clip-rule="evenodd" d="M92.1394 44.2064C92.1394 45.7162 91.0691 47.2865 89.4342 47.2865C88.2121 47.2865 87.5253 46.3742 87.5253 45.2709C87.5253 43.6599 88.6465 42.1597 90.2314 42.1597C91.5534 42.1597 92.1394 43.1627 92.1394 44.2064ZM88.394 45.2397C88.394 46.0396 88.8266 46.6181 89.5445 46.6181C90.533 46.6181 91.2811 45.3418 91.2811 44.196C91.2811 43.6288 91.0191 42.8281 90.1392 42.8281C89.0903 42.8281 88.3828 44.1148 88.394 45.2397Z" fill="#9C9B9B"/>
<path fill-rule="evenodd" clip-rule="evenodd" d="M95.9653 47.1749C95.9653 46.8809 96.0144 46.4149 96.0756 45.909H96.0549C95.5214 46.9216 94.8544 47.2865 94.1572 47.2865C93.2988 47.2865 92.7542 46.5973 92.7542 45.666C92.7542 43.9634 94.0064 42.1597 96.1359 42.1597C96.6022 42.1597 97.1158 42.241 97.4493 42.3525L96.9555 44.9051C96.7935 45.756 96.722 46.6284 96.7418 47.1749H95.9653ZM96.51 42.899C96.3884 42.8687 96.2083 42.8281 95.9248 42.8281C94.6631 42.8281 93.6323 44.1554 93.6229 45.513C93.6229 46.0603 93.815 46.5973 94.4605 46.5973C95.1569 46.5973 95.9851 45.6859 96.2281 44.3794L96.51 42.899Z" fill="#9C9B9B"/>
<path fill-rule="evenodd" clip-rule="evenodd" d="M97.9995 47.1747L99.362 39.9812H100.202L98.8285 47.1747H97.9995Z" fill="#9C9B9B"/>
<path fill-rule="evenodd" clip-rule="evenodd" d="M100.342 46.3241C100.574 46.4659 100.997 46.6285 101.392 46.6285C101.957 46.6285 102.319 46.2635 102.319 45.8277C102.319 45.4421 102.149 45.2095 101.644 44.9259C101.079 44.612 100.766 44.1762 100.766 43.6798C100.766 42.8186 101.502 42.1597 102.533 42.1597C102.977 42.1597 103.371 42.2816 103.554 42.4035L103.32 43.0417C103.148 42.9396 102.835 42.8186 102.473 42.8186C101.966 42.8186 101.603 43.1325 101.603 43.5579C101.603 43.9124 101.836 44.1355 102.27 44.3794C102.815 44.6932 103.189 45.1178 103.189 45.666C103.189 46.6985 102.351 47.2761 101.32 47.2761C100.796 47.2761 100.331 47.1144 100.109 46.9423L100.342 46.3241Z" fill="#9C9B9B"/>
<path fill-rule="evenodd" clip-rule="evenodd" d="M103.892 46.6884C103.892 46.314 104.154 46.0105 104.528 46.0105C104.87 46.0105 105.093 46.2639 105.093 46.6184C105.093 46.9833 104.829 47.2868 104.447 47.2868C104.114 47.2868 103.892 47.0231 103.892 46.6884Z" fill="#9C9B9B"/>
<path fill-rule="evenodd" clip-rule="evenodd" d="M108.957 47.1743L108.624 40.3457H109.473L109.613 44.4383C109.644 45.3203 109.623 45.7864 109.613 46.2222H109.633C109.795 45.776 109.957 45.3307 110.34 44.4894L112.217 40.3457H113.118L113.259 44.2766C113.29 45.1578 113.29 45.7553 113.278 46.2015H113.298C113.502 45.6143 113.704 45.067 113.965 44.4487L115.793 40.3457H116.671L113.51 47.1743H112.632L112.452 43.2943C112.42 42.4936 112.431 42.1088 112.472 41.3289H112.441C112.217 41.9765 112.037 42.5031 111.754 43.1223L109.856 47.1743H108.957Z" fill="#9C9B9B"/>
<path fill-rule="evenodd" clip-rule="evenodd" d="M119.513 46.8913C119.149 47.104 118.554 47.2761 117.897 47.2761C116.605 47.2761 116.039 46.3941 116.039 45.3106C116.039 43.8311 117.129 42.1597 118.705 42.1597C119.633 42.1597 120.139 42.7174 120.139 43.4169C120.139 44.7036 118.694 45.0478 116.887 45.0175C116.848 45.2294 116.877 45.6859 116.989 45.9488C117.18 46.3846 117.574 46.6077 118.079 46.6077C118.653 46.6077 119.088 46.4252 119.392 46.2635L119.513 46.8913ZM118.583 42.8186C117.786 42.8186 117.19 43.5985 116.989 44.369C118.3 44.3794 119.331 44.2064 119.331 43.4463C119.331 43.0417 119.027 42.8186 118.583 42.8186Z" fill="#9C9B9B"/>
<path fill-rule="evenodd" clip-rule="evenodd" d="M121.962 49.181L122.942 44.0145C123.043 43.4265 123.143 42.7684 123.214 42.2712H123.982L123.84 43.193H123.861C124.304 42.5548 124.95 42.1597 125.617 42.1597C126.677 42.1597 127.121 43.0313 127.121 43.9332C127.121 45.6557 125.889 47.2865 124.264 47.2865C123.739 47.2865 123.396 47.1749 123.203 47.0634H123.183L122.788 49.181H121.962ZM123.336 46.3552C123.548 46.5264 123.869 46.6285 124.264 46.6285C125.345 46.6285 126.254 45.2804 126.254 43.9937C126.254 43.4766 126.02 42.8592 125.315 42.8592C124.658 42.8592 123.829 43.6184 123.577 44.9872L123.336 46.3552Z" fill="#9C9B9B"/>
<path fill-rule="evenodd" clip-rule="evenodd" d="M127.695 47.1749L128.289 44.0145C128.411 43.3763 128.492 42.7278 128.541 42.2712H129.28C129.239 42.6154 129.199 42.9604 129.147 43.3357H129.179C129.492 42.6664 130.016 42.1597 130.671 42.1597C130.744 42.1597 130.845 42.17 130.906 42.1796L130.744 43.0114C130.692 43.001 130.613 42.9906 130.521 42.9906C129.793 42.9906 129.147 43.8718 128.936 45.0175L128.532 47.1749H127.695Z" fill="#9C9B9B"/>
<path fill-rule="evenodd" clip-rule="evenodd" d="M135.527 44.2064C135.527 45.7162 134.457 47.2865 132.82 47.2865C131.6 47.2865 130.913 46.3742 130.913 45.2709C130.913 43.6599 132.034 42.1597 133.619 42.1597C134.941 42.1597 135.527 43.1627 135.527 44.2064ZM131.781 45.2397C131.781 46.0396 132.215 46.6181 132.932 46.6181C133.921 46.6181 134.669 45.3418 134.669 44.196C134.669 43.6288 134.407 42.8281 133.527 42.8281C132.478 42.8281 131.771 44.1148 131.781 45.2397Z" fill="#9C9B9B"/>
<path fill-rule="evenodd" clip-rule="evenodd" d="M137.131 42.271L137.554 45.0674C137.626 45.6252 137.687 45.9996 137.705 46.2728H137.736C137.838 46.01 137.969 45.6857 138.252 45.128L139.745 42.271H140.664L137.948 47.1747H137.12L136.273 42.271H137.131Z" fill="#9C9B9B"/>
<path fill-rule="evenodd" clip-rule="evenodd" d="M140.632 47.1751L141.571 42.2714H142.408L141.47 47.1751H140.632ZM141.722 40.9034C141.722 40.5792 141.974 40.3362 142.278 40.3362C142.58 40.3362 142.771 40.5593 142.771 40.8628C142.763 41.1974 142.53 41.4309 142.207 41.4309C141.914 41.4309 141.722 41.2069 141.722 40.9034Z" fill="#9C9B9B"/>
<path fill-rule="evenodd" clip-rule="evenodd" d="M148.142 39.9812L147.072 45.6251C146.971 46.131 146.89 46.6982 146.86 47.1747H146.092L146.223 46.2019H146.204C145.76 46.9014 145.143 47.2862 144.446 47.2862C143.497 47.2862 142.983 46.5062 142.983 45.5032C142.983 43.7608 144.276 42.1594 146.001 42.1594C146.314 42.1594 146.658 42.2303 146.87 42.3323L147.304 39.9812H148.142ZM146.739 43.0414C146.566 42.9298 146.284 42.8382 145.93 42.8382C144.759 42.8382 143.85 44.0851 143.85 45.3908C143.85 45.9796 144.053 46.597 144.769 46.597C145.415 46.597 146.194 45.8577 146.405 44.7526L146.739 43.0414Z" fill="#9C9B9B"/>
<path fill-rule="evenodd" clip-rule="evenodd" d="M151.763 46.8913C151.399 47.104 150.804 47.2761 150.147 47.2761C148.855 47.2761 148.289 46.3941 148.289 45.3106C148.289 43.8311 149.379 42.1597 150.955 42.1597C151.883 42.1597 152.389 42.7174 152.389 43.4169C152.389 44.7036 150.944 45.0478 149.138 45.0175C149.098 45.2294 149.127 45.6859 149.239 45.9488C149.43 46.3846 149.825 46.6077 150.329 46.6077C150.903 46.6077 151.338 46.4252 151.642 46.2635L151.763 46.8913ZM150.833 42.8186C150.036 42.8186 149.44 43.5985 149.239 44.369C150.55 44.3794 151.581 44.2064 151.581 43.4463C151.581 43.0417 151.277 42.8186 150.833 42.8186Z" fill="#9C9B9B"/>
<path fill-rule="evenodd" clip-rule="evenodd" d="M156.838 40.9539L156.586 42.2708H157.757L157.624 42.9297H156.454L155.999 45.3102C155.949 45.5843 155.908 45.8368 155.908 46.1006C155.908 46.3937 156.05 46.5666 156.372 46.5666C156.514 46.5666 156.655 46.5563 156.767 46.5364L156.726 47.1944C156.575 47.2558 156.323 47.2861 156.08 47.2861C155.333 47.2861 155.051 46.8304 155.051 46.334C155.051 46.0495 155.08 45.7659 155.151 45.4114L155.636 42.9297H154.929L155.059 42.2708H155.757L155.969 41.1674L156.838 40.9539Z" fill="#9C9B9B"/>
<path fill-rule="evenodd" clip-rule="evenodd" d="M157.805 47.1747L159.167 39.9812H160.004L159.399 43.1426H159.419C159.834 42.5442 160.43 42.1594 161.167 42.1594C161.723 42.1594 162.378 42.5035 162.378 43.4763C162.378 43.7409 162.348 44.0548 162.297 44.3082L161.752 47.1747H160.914L161.459 44.3479C161.488 44.1655 161.52 43.9424 161.52 43.6692C161.52 43.2135 161.308 42.8589 160.762 42.8589C160.115 42.8589 159.298 43.6181 159.097 44.7232L158.643 47.1747H157.805Z" fill="#9C9B9B"/>
<path fill-rule="evenodd" clip-rule="evenodd" d="M166.719 46.8913C166.354 47.104 165.76 47.2761 165.102 47.2761C163.809 47.2761 163.245 46.3941 163.245 45.3106C163.245 43.8311 164.334 42.1597 165.91 42.1597C166.839 42.1597 167.344 42.7174 167.344 43.4169C167.344 44.7036 165.899 45.0478 164.093 45.0175C164.052 45.2294 164.082 45.6859 164.194 45.9488C164.386 46.3846 164.78 46.6077 165.284 46.6077C165.859 46.6077 166.293 46.4252 166.597 46.2635L166.719 46.8913ZM165.789 42.8186C164.992 42.8186 164.395 43.5985 164.194 44.369C165.505 44.3794 166.536 44.2064 166.536 43.4463C166.536 43.0417 166.233 42.8186 165.789 42.8186Z" fill="#9C9B9B"/>
<path fill-rule="evenodd" clip-rule="evenodd" d="M169.637 46.3241C169.871 46.4659 170.295 46.6285 170.689 46.6285C171.254 46.6285 171.617 46.2635 171.617 45.8277C171.617 45.4421 171.445 45.2095 170.94 44.9259C170.376 44.612 170.062 44.1762 170.062 43.6798C170.062 42.8186 170.799 42.1597 171.83 42.1597C172.273 42.1597 172.668 42.2816 172.85 42.4035L172.616 43.0417C172.445 42.9396 172.132 42.8186 171.769 42.8186C171.262 42.8186 170.901 43.1325 170.901 43.5579C170.901 43.9124 171.132 44.1355 171.567 44.3794C172.111 44.6932 172.485 45.1178 172.485 45.666C172.485 46.6985 171.648 47.2761 170.617 47.2761C170.092 47.2761 169.628 47.1144 169.405 46.9423L169.637 46.3241Z" fill="#9C9B9B"/>
<path fill-rule="evenodd" clip-rule="evenodd" d="M175.555 40.9539L175.303 42.2708H176.474L176.341 42.9297H175.171L174.716 45.3102C174.667 45.5843 174.625 45.8368 174.625 46.1006C174.625 46.3937 174.767 46.5666 175.09 46.5666C175.231 46.5666 175.373 46.5563 175.484 46.5364L175.443 47.1944C175.292 47.2558 175.04 47.2861 174.797 47.2861C174.051 47.2861 173.768 46.8304 173.768 46.334C173.768 46.0495 173.797 45.7659 173.869 45.4114L174.353 42.9297H173.646L173.777 42.2708H174.474L174.686 41.1674L175.555 40.9539Z" fill="#9C9B9B"/>
<path fill-rule="evenodd" clip-rule="evenodd" d="M180.003 46.8913C179.638 47.104 179.044 47.2761 178.386 47.2761C177.093 47.2761 176.528 46.3941 176.528 45.3106C176.528 43.8311 177.618 42.1597 179.194 42.1597C180.123 42.1597 180.628 42.7174 180.628 43.4169C180.628 44.7036 179.183 45.0478 177.377 45.0175C177.336 45.2294 177.366 45.6859 177.479 45.9488C177.67 46.3846 178.064 46.6077 178.568 46.6077C179.143 46.6077 179.577 46.4252 179.881 46.2635L180.003 46.8913ZM179.073 42.8186C178.276 42.8186 177.679 43.5985 177.479 44.369C178.789 44.3794 179.82 44.2064 179.82 43.4463C179.82 43.0417 179.517 42.8186 179.073 42.8186Z" fill="#9C9B9B"/>
<path fill-rule="evenodd" clip-rule="evenodd" d="M180.619 49.181L181.599 44.0145C181.7 43.4265 181.8 42.7684 181.871 42.2712H182.639L182.497 43.193H182.518C182.961 42.5548 183.607 42.1597 184.274 42.1597C185.334 42.1597 185.778 43.0313 185.778 43.9332C185.778 45.6557 184.546 47.2865 182.921 47.2865C182.396 47.2865 182.053 47.1749 181.86 47.0634H181.839L181.445 49.181H180.619ZM181.993 46.3552C182.205 46.5264 182.526 46.6285 182.921 46.6285C184.002 46.6285 184.911 45.2804 184.911 43.9937C184.911 43.4766 184.677 42.8592 183.971 42.8592C183.315 42.8592 182.486 43.6184 182.234 44.9872L181.993 46.3552Z" fill="#9C9B9B"/>
<path fill-rule="evenodd" clip-rule="evenodd" d="M186.389 46.3241C186.621 46.4659 187.044 46.6285 187.438 46.6285C188.003 46.6285 188.366 46.2635 188.366 45.8277C188.366 45.4421 188.195 45.2095 187.691 44.9259C187.125 44.612 186.812 44.1762 186.812 43.6798C186.812 42.8186 187.548 42.1597 188.58 42.1597C189.024 42.1597 189.418 42.2816 189.6 42.4035L189.366 43.0417C189.195 42.9396 188.882 42.8186 188.519 42.8186C188.013 42.8186 187.65 43.1325 187.65 43.5579C187.65 43.9124 187.882 44.1355 188.316 44.3794C188.862 44.6932 189.235 45.1178 189.235 45.666C189.235 46.6985 188.397 47.2761 187.367 47.2761C186.842 47.2761 186.378 47.1144 186.155 46.9423L186.389 46.3241Z" fill="#9C9B9B"/>
</svg>
